# xmcd
#
# Track frame offsets:
#	150
#	16738
#	44025
#	108478
#	145277
#	194950
#
# Disc length: 3114 seconds
#
# Revision: 1
# Processed by: cddbd v1.5.2PL0 Copyright (c) Steve Scherf et al.
# Submitted via: audiograbber 1.83.01
#
DISCID=590c2806
DTITLE=Grateful Dead - 69-07-11 NY State Pavilion, Flushing Meadow Park, Queens
DTITLE=NY
DYEAR=1900
DGENRE=
TTITLE0=Alligator
TTITLE1=Drums
TTITLE2=Jam
TTITLE3=The Other One
TTITLE4=Death Don't Have No Mercy
TTITLE5=Turn On Your Lovelight
EXTD=
EXTT0=
EXTT1=
EXTT2=
EXTT3=
EXTT4=
EXTT5=
PLAYORDER=
